#!OML:ASF E:\acrobat2\Project_11_07_03\Capture day 1\Session 1\Acrobat.ASF
:FULLY-SPECIFIED
:DEGREES
709
root 10.7453 6.03421 11.66 -88.5959 4.16775 177.675
lowerback -4.72669 -3.42865 5.32947
upperback 0.904391 -4.92939 0.502302
thorax 3.18025 -2.36568 -2.80544
lowerneck 2.29909 -14.9836 -10.2154
upperneck -28.0838 -15.8348 29.3968
head -4.92739 -8.37889 11.8008
rclavicle 1.90833e-014 -1.38652e-014
rhumerus 31.7793 -34.9258 -32.0858
rradius 119.918
rwrist -22.7498
rhand -19.3142 -42.3894
rfingers 7.12502
rthumb 7.00181 -72.2536
lclavicle 1.90833e-014 -1.38652e-014
lhumerus 18.4631 49.2685 3.44136
lradius 108.368
lwrist 34.1467
lhand -5.56211 -25.0299
lfingers 7.12502
lthumb 20.2533 3.93417
rfemur 2.22489 14.7914 -8.91939
rtibia 1.59028e-015
rfoot 29.8981 -24.5827
rtoes 37.3285
lfemur -12.3437 -22.0208 2.79462
ltibia 19.1579
lfoot 37.8547 10.9873
ltoes 17.6615
710
root 10.7449 6.03412 11.66 -88.5965 4.18007 177.669
lowerback -4.72386 -3.42957 5.3209
upperback 0.907991 -4.9298 0.497164
thorax 3.1826 -2.36583 -2.80596
lowerneck 2.35826 -14.9758 -10.2495
upperneck -28.1507 -15.81 29.4631
head -4.95069 -8.37203 11.8444
rclavicle -7.95139e-015 2.01518e-014
rhumerus 31.7714 -34.9373 -32.0878
rradius 119.913
rwrist -22.7456
rhand -19.3251 -42.3698
rfingers 7.12502
rthumb 6.99138 -72.2344
lclavicle -7.95139e-015 2.01518e-014
lhumerus 18.4802 49.283 3.44478
lradius 108.361
lwrist 34.1366
lhand -5.62299 -25.0125
lfingers 7.12502
lthumb 20.1947 3.95773
rfemur 2.22677 14.786 -8.93358
rtibia 1.59028e-015
rfoot 29.8909 -24.6049
rtoes 37.4129
lfemur -12.3422 -22.0413 2.78288
ltibia 19.1518
lfoot 37.8596 10.9965
ltoes 17.7333
711
root 10.7445 6.0341 11.6598 -88.5926 4.20026 177.666
lowerback -4.72499 -3.43133 5.30402
upperback 0.911256 -4.93094 0.489754
thorax 3.18723 -2.3664 -2.80456
lowerneck 2.41601 -14.9678 -10.2802
upperneck -28.2177 -15.7842 29.5296
head -4.97438 -8.36485 11.8876
rclavicle 0 -1.97791e-014
rhumerus 31.7802 -34.9523 -32.0971
rradius 119.894
rwrist -22.7462
rhand -19.3332 -42.3606
rfingers 7.12502
rthumb 6.98351 -72.2254
lclavicle 0 -1.97791e-014
lhumerus 18.4913 49.2975 3.43192
lradius 108.35
lwrist 34.1447
lhand -5.70941 -24.9879
lfingers 7.12502
lthumb 20.1117 3.99109
rfemur 2.22237 14.7803 -8.95872
rtibia -1.94809e-014
rfoot 29.8888 -24.6272
rtoes 37.5508
lfemur -12.3419 -22.0748 2.76516
ltibia 19.1429
lfoot 37.8234 11.0439
ltoes 17.7963
712
root 10.7441 6.03413 11.6596 -88.5864 4.22532 177.66
lowerback -4.72923 -3.4347 5.28166
upperback 0.914792 -4.93405 0.481121
thorax 3.19406 -2.36796 -2.80175
lowerneck 2.46649 -14.9607 -10.2999
upperneck -28.2783 -15.7609 29.5833
head -4.9973 -8.35837 11.9233
rclavicle -2.70347e-014 -3.84897e-014
rhumerus 31.803 -34.9687 -32.1131
rradius 119.867
rwrist -22.746
rhand -19.3317 -42.3543
rfingers 7.12502
rthumb 6.98493 -72.2191
lclavicle -2.70347e-014 -3.84897e-014
lhumerus 18.5003 49.3121 3.41412
lradius 108.339
lwrist 34.1574
lhand -5.79204 -24.9603
lfingers 7.12502
lthumb 20.0323 4.02705
rfemur 2.21731 14.7718 -8.99014
rtibia 0
rfoot 29.8963 -24.6531
rtoes 37.6919
lfemur -12.3459 -22.1089 2.74311
ltibia 19.1348
lfoot 37.7859 11.1148
ltoes 17.9023
713
root 10.7437 6.03409 11.6594 -88.5827 4.24236 177.651
lowerback -4.73365 -3.43952 5.26836
upperback 0.920155 -4.9398 0.474003
thorax 3.20208 -2.37063 -2.80262
lowerneck 2.502 -14.9559 -10.3006
upperneck -28.3234 -15.7438 29.6135
head -5.01687 -8.35391 11.9443
rclavicle 5.40694e-014 -4.83544e-014
rhumerus 31.8327 -34.9828 -32.1356
rradius 119.84
rwrist -22.7373
rhand -19.3248 -42.3417
rfingers 7.12502
rthumb 6.99158 -72.2063
lclavicle 5.40694e-014 -4.83544e-014
lhumerus 18.5077 49.3262 3.3997
lradius 108.331
lwrist 34.1618
lhand -5.85007 -24.9305
lfingers 7.12502
lthumb 19.9765 4.06271
rfemur 2.21846 14.7608 -9.01116
rtibia -4.77083e-015
rfoot 29.8961 -24.6768
rtoes 37.8402
lfemur -12.3529 -22.1322 2.72827
ltibia 19.1321
lfoot 37.775 11.183
ltoes 18.0128
714
root 10.7433 6.03395 11.6594 -88.586 4.23883 177.637
lowerback -4.73429 -3.44484 5.2769
upperback 0.928887 -4.94773 0.471683
thorax 3.20995 -2.374 -2.81061
lowerneck 2.50722 -14.9565 -10.2795
upperneck -28.3338 -15.7414 29.6102
head -5.02436 -8.35451 11.942
rclavicle 1.90833e-014 -1.43622e-014
rhumerus 31.8617 -34.9934 -32.1612
rradius 119.817
rwrist -22.7165
rhand -19.316 -42.3303
rfingers 7.12502
rthumb 7.00013 -72.1946
lclavicle 1.90833e-014 -1.43622e-014
lhumerus 18.5146 49.3384 3.39565
lradius 108.328
lwrist 34.1578
lhand -5.8683 -24.9104
lfingers 7.12502
lthumb 19.959 4.08464
rfemur 2.23084 14.7502 -9.00614
rtibia 2.3059e-014
rfoot 29.8974 -24.6911
rtoes 37.9689
lfemur -12.3597 -22.1421 2.73261
ltibia 19.1387
lfoot 37.7895 11.2295
ltoes 18.0636
715
root 10.7429 6.03381 11.6596 -88.596 4.21443 177.621
lowerback -4.72975 -3.44993 5.30665
upperback 0.940352 -4.95669 0.474549
thorax 3.21639 -2.37759 -2.82475
lowerneck 2.47822 -14.9627 -10.2394
upperneck -28.307 -15.7539 29.5749
head -5.01768 -8.35986 11.9168
rclavicle 3.81667e-014 -1.20513e-014
rhumerus 31.8813 -34.9989 -32.1891
rradius 119.806
rwrist -22.6828
rhand -19.3088 -42.3271
rfingers 7.12502
rthumb 7.00711 -72.1912
lclavicle 3.81667e-014 -1.20513e-014
lhumerus 18.5212 49.3458 3.4039
lradius 108.332
lwrist 34.1465
lhand -5.84105 -24.9024
lfingers 7.12502
lthumb 19.9851 4.08986
rfemur 2.2529 14.741 -8.97465
rtibia 1.27222e-014
rfoot 29.8837 -24.6977
rtoes 38.1243
lfemur -12.3669 -22.1389 2.75688
ltibia 19.1554
lfoot 37.8234 11.2294
ltoes 18.0213
716
root 10.7426 6.0338 11.6599 -88.6098 4.1789 177.605
lowerback -4.71997 -3.45386 5.34741
upperback 0.952465 -4.96462 0.480275
thorax 3.22002 -2.38058 -2.84161
lowerneck 2.42938 -14.971 -10.1835
upperneck -28.2652 -15.772 29.517
head -5.00653 -8.36613 11.8772
rclavicle 5.56597e-014 -1.84621e-014
rhumerus 31.898 -35.0048 -32.2115
rradius 119.797
rwrist -22.6458
rhand -19.3009 -42.3405
rfingers 7.12502
rthumb 7.01467 -72.2043
lclavicle 5.56597e-014 -1.84621e-014
lhumerus 18.5275 49.3497 3.41579
lradius 108.338
lwrist 34.1371
lhand -5.7931 -24.9001
lfingers 7.12502
lthumb 20.0312 4.08733
rfemur 2.27779 14.7344 -8.92884
rtibia 1.86858e-014
rfoot 29.8679 -24.684
rtoes 38.213
lfemur -12.3739 -22.1291 2.7916
ltibia 19.1784
lfoot 37.8573 11.1852
ltoes 17.8905
717
root 10.7423 6.03394 11.66 -88.6208 4.1488 177.593
lowerback -4.7101 -3.45582 5.38321
upperback 0.962152 -4.96943 0.484685
thorax 3.22161 -2.38219 -2.85679
lowerneck 2.37817 -14.9791 -10.117
upperneck -28.228 -15.7888 29.4453
head -4.9997 -8.37099 11.8318
rclavicle 7.95139e-015 -1.61016e-014
rhumerus 31.9177 -35.0168 -32.2237
rradius 119.785
rwrist -22.6161
rhand -19.2857 -42.3721
rfingers 7.12502
rthumb 7.02933 -72.2354
lclavicle 7.95139e-015 -1.61016e-014
lhumerus 18.5306 49.353 3.42159
lradius 108.344
lwrist 34.1417
lhand -5.75698 -24.9017
lfingers 7.12502
lthumb 20.066 4.0821
rfemur 2.29614 14.7292 -8.88819
rtibia -9.54166e-015
rfoot 29.8839 -24.6264
rtoes 38.1823
lfemur -12.382 -22.122 2.82094
ltibia 19.2006
lfoot 37.8658 11.1157
ltoes 17.6605
718
root 10.7419 6.03424 11.6597 -88.6248 4.13848 177.585
lowerback -4.70425 -3.45577 5.40041
upperback 0.967466 -4.97021 0.483705
thorax 3.22229 -2.38214 -2.86713
lowerneck 2.33458 -14.9861 -10.0509
upperneck -28.2019 -15.8023 29.3731
head -4.99833 -8.37436 11.7887
rclavicle 1.11319e-014 1.11816e-014
rhumerus 31.9366 -35.031 -32.2279
rradius 119.771
rwrist -22.5955
rhand -19.268 -42.4114
rfingers 7.12502
rthumb 7.04645 -72.2741
lclavicle 1.11319e-014 1.11816e-014
lhumerus 18.5318 49.357 3.42437
lradius 108.348
lwrist 34.1511
lhand -5.73925 -24.9096
lfingers 7.12502
lthumb 20.083 4.07243
rfemur 2.30227 14.7238 -8.86989
rtibia 8.74653e-015
rfoot 29.9412 -24.5202
rtoes 38.0129
lfemur -12.3913 -22.1247 2.83109
ltibia 19.2163
lfoot 37.8404 11.051
ltoes 17.4395
